<svg xmlns="http://www.w3.org/2000/svg" viewBox="0 0 422.9 1206.94"><defs><style>.cls-1{fill:#6ea2e8;}.cls-2{fill:#466494;}.cls-3{fill:#eea987;}.cls-4{fill:#323657;}.cls-5{fill:#eea886;}.cls-6{fill:#557fb5;}.cls-7{fill:#c58c71;}.cls-8{fill:#d88a51;}.cls-9{fill:#565e96;}.cls-10{fill:#6596d6;}</style></defs><title>Person</title><g id="Layer_2" data-name="Layer 2"><g id="Layer_1-2" data-name="Layer 1"><path class="cls-1" d="M141.38,1127,139,1146.53s26.53,4.71,38.34-.94l.78-15.53Z"/><path class="cls-2" d="M178.33,1144.1s-19.74-.39-28-1.88-12.44-7.21-14.55-1.9-13.26,19.09-21.3,22.76-61.12,14.43-59.42,27S83.41,1211,120,1204.88s39.5,2.92,62.2-8.52C189.23,1192.8,178.33,1144.1,178.33,1144.1Z"/><path class="cls-1" d="M245.34,197.53s36.38-26.62,85.89-18.56,44.6,57.95,44.6,57.95Z"/><path class="cls-3" d="M44.51,352.31s57.4,16.64,65.59,21L93.8,397.6s-28.08-6.74-44.15-7S44.51,352.31,44.51,352.31Z"/><path class="cls-1" d="M202.85,218.41s-70.18,106.52-80.69,107.38-94.28-23.85-94.28-23.85L24.39,339S144,389.57,153.56,379.3s85.6-115.72,85.6-115.72S241.53,223.63,202.85,218.41Z"/><path class="cls-1" d="M377,1129.81l.41,16.72s26.53,4.71,38.34-.94l-.56-16.48Z"/><path class="cls-4" d="M391.8,857.06c.57,11.69,30.25,272.24,30.25,272.24-.58,4.6-51.5,3.42-51.5,3.42S315.8,873,314.07,862.67s-42.24-171.6-42.83-181.35-2.89-13.77-13.88-10.89-36,166.45-38.94,196.28-29.26,263.72-33.88,266.58-48.65-3-51-4.18S142,928.45,142,908.92c0-10.72-3.71-66.38,1.74-96.06,3.51-19.06,5.52-174.48,24-225,3.33-9.07,7.09-54.7,7.09-54.7s178.87-33.87,183,16.53c.41,4.83,6.69,30,6.89,35.33C368.18,679.85,391.25,846,391.8,857.06Z"/><path class="cls-5" d="M233.17,28.34s-28.79,39.79-13.11,100.79,76.85,71.17,102.21,1.42S337.68,30.8,311,19.61,251.7,3.71,233.17,28.34Z"/><path class="cls-1" d="M252.66,194.61s-42.93,11-50.26,24.57-32.46,83.13-29.9,117S184.4,418,184.23,441.42c-.18,24.55-27.21,136.22-19.68,144C203.1,625.17,364.92,619,367,609s-.62-95,0-140.58c.25-18.29,9.28-32.18,28.64-102.05,19.28-69.58,16.92-121.94-7.37-137.91-37.11-24.38-64.08-35.18-64.08-35.18Z"/><path class="cls-6" d="M364.42,219.19c-.33-.25-33.9-24.45-60.24-20.19l-.32-1.91c27.15-4.38,60.32,19.52,61.72,20.54Z"/><path class="cls-5" d="M260.32,150.89s1.56,25.73-5.52,39-16.65,54.56,8.51,60.3,54-27.93,59.24-51.37c0,0-15.6-20.29-1.5-65.06S260.32,150.89,260.32,150.89Z"/><path class="cls-6" d="M323,312.72c.17-1.39,4.22-34.1,14.36-50.47l2.19,1.34c-9.84,15.89-13.95,49.1-14,49.43Z"/><path class="cls-7" d="M263.7,179.41l-1.3-.2.32-1.89c13.9,2.3,26.29-1.41,36.87-11A55.83,55.83,0,0,0,311.43,151l1.75.82a56.8,56.8,0,0,1-12.24,15.88C293.53,174.41,281.11,181.84,263.7,179.41Z"/><path class="cls-8" d="M295.74,93.48l-9.53,13.29L276,105.34s14.21-20.28,9.09-25.82-42-6.58-62-17.77c0,0-4.1.47-4.48,2.34-.42,2.1-4.25-21,5.08-42.25C239.76-14.92,318.58-.85,339,31.38c0,0,18.75,5,15.59,27.65S334,109.94,321.05,133.78c0,0-11.13-20.37-17.87-21.83S295.74,93.48,295.74,93.48Z"/><path class="cls-5" d="M295.74,93.48c1.84-5.33,12.42-29.66,24.94-14.1s-14.16,39.73-21,39.16C294.06,118.06,286.89,119.15,295.74,93.48Z"/><path class="cls-1" d="M406.55,305.53S310.94,469.71,295.78,472.76s-128.51-38.54-145.51-46.93-81.18-29.34-81.18-29.34,11.39-33.72,20.47-39.76c0,0,116.91,27.91,151.27,39.15s37.9-7.6,63.23-48.77,48.71-83.91,51.25-86.56,14-33.27,39-14.3S406.55,305.53,406.55,305.53Z"/><polygon class="cls-6" points="146.75 372.02 97.48 359.94 98.09 357.46 147.37 369.54 146.75 372.02"/><path class="cls-6" d="M175.1,347.22c0-.36-2.21-36.06,4.35-62.83l2.18.52c-6.48,26.45-4.31,61.81-4.29,62.16Z"/><path class="cls-6" d="M175,339.88c.12-1,3.07-25.47,8-38l2.09.8c-4.78,12.27-7.8,37.2-7.83,37.45Z"/><path class="cls-9" d="M250.57,663.68c-13.15-16.42-26.45-47.1-26.58-47.4l1.57-.67c.13.3,13.34,30.77,26.35,47Z"/><path class="cls-9" d="M247.84,659.92c-.16-.14-15.49-14.15-23.78-26.59l1.43-.93c8.17,12.26,23.35,26.13,23.5,26.27Z"/><path class="cls-3" d="M.77,377s4,4,6.65,4.85c0,0,4.89,1.24,8.31,2.33a25.44,25.44,0,0,1,2.61.95c2.43,1.15,7.44,4.39,14.07,5.51s31,.6,31,.6l4.45-17.73,6.3-12.65s-27.95-29.49-34-31.25a16.85,16.85,0,0,0-1.75-.4c-5.27-1-9.61.46-12.43.25-1-.07-11.41-.09-13.39,2.28-2.75,3.28-3.31,6.66-2.45,9.46,0,0-5.1,6.65-4.89,12.28,0,0-4.91,6-2.64,12.92C2.58,366.41-1.7,373,.77,377Z"/><path class="cls-6" d="M292.24,474.05c-22.64,0-91.85-27.52-95-28.77l.73-1.79c.81.33,80.93,32.19,97.56,28.33,13.23-3.08,69.85-96.88,97.94-146.06l1.69.95c-3.33,5.84-81.84,143-99.18,147A17.15,17.15,0,0,1,292.24,474.05Z"/><path class="cls-6" d="M258.9,399.8a67.44,67.44,0,0,1-18.34-3C205.8,386.86,191.27,383,191.12,383l.5-1.87c.15,0,14.69,3.89,49.48,13.85,29.37,8.41,35.5-3.19,39.17-10.11a25.87,25.87,0,0,1,1.84-3.15c4-5.37,69.4-117,70.06-118.18l1.68,1c-2.7,4.61-66.15,112.9-70.17,118.35a24.68,24.68,0,0,0-1.69,2.91C279.19,391,274.55,399.8,258.9,399.8Z"/><path class="cls-10" d="M296,526.89l-3.17,56.42c-48.82,13.11-114.64-13.1-114.64-13.1.86-8.85,5.73-36.59,9.31-56.36l19.74-19.33,68.36,7.86Z"/><path class="cls-2" d="M416.69,1144.1s-19.74-.39-27.95-1.88-12.43-7.21-14.55-1.9-13.25,19.09-21.3,22.76-61.12,14.43-59.42,27,28.3,20.92,64.85,14.79,39.49,2.92,62.19-8.52C427.59,1192.8,416.69,1144.1,416.69,1144.1Z"/></g></g></svg>